<svg xmlns="http://www.w3.org/2000/svg" width="150" height="150" viewBox="0 0 150 150"><rect width="100%" height="100%" fill="#E2E8F0"/><path fill="#4A5568" d="M54.72 58.735h6.07v32.53h-6.07v-14.22H39.44v14.22h-6.08v-32.53h6.08v13.99h15.28zm44.03 0h4.56v32.53h-5.33v-21.02q0-1.25.14-2.72l-9.83 18.48q-.7 1.32-2.14 1.32h-.86q-1.44 0-2.13-1.32l-9.95-18.54q.07.74.11 1.46.05.72.05 1.32v21.02h-5.33v-32.53h4.56q.41 0 .7.02t.53.11.43.29q.19.21.37.54l9.74 18.07q.38.72.71 1.49.33.76.64 1.57.32-.83.65-1.61.34-.77.72-1.49l9.61-18.03q.18-.33.38-.54.21-.2.44-.29.24-.09.53-.11t.7-.02m17.89 0v32.53h-6.08v-32.53z"/></svg>